<?xml version="1.0" encoding="utf-8"?>
<!-- Generator: Adobe Illustrator 16.0.0, SVG Export Plug-In . SVG Version: 6.00 Build 0)  -->
<!DOCTYPE svg PUBLIC "-//W3C//DTD SVG 1.1//EN" "http://www.w3.org/Graphics/SVG/1.1/DTD/svg11.dtd">
<svg xmlns="http://www.w3.org/2000/svg" xmlns:xlink="http://www.w3.org/1999/xlink" version="1.1" id="Layer_1" x="0px" y="0px" width="512px" height="512px" viewBox="0 0 24 24" enable-background="new 0 0 24 24" xml:space="preserve">
<g>
	<path d="M10.57,8.969c-0.461,0-0.837,0.411-0.837,0.921c0,0.507,0.375,0.921,0.837,0.921s0.835-0.414,0.835-0.921   C11.405,9.38,11.031,8.969,10.57,8.969z M10.729,9.925c-0.212,0-0.382-0.188-0.382-0.42c0-0.233,0.17-0.42,0.382-0.42   c0.21,0,0.38,0.187,0.38,0.42C11.11,9.737,10.94,9.925,10.729,9.925z" fill="#933EC5"/>
	<path d="M19.124,2.261c0.021-0.014,0.024-0.04,0.04-0.059c0.016-0.018,0.041-0.024,0.051-0.047   c0.004-0.009-0.002-0.019,0.001-0.028c0.01-0.032,0.006-0.06,0.003-0.093C19.216,2,19.216,1.972,19.201,1.943   c-0.004-0.009,0-0.02-0.005-0.028c-0.014-0.021-0.04-0.024-0.058-0.04c-0.018-0.016-0.025-0.041-0.048-0.051   c-0.017-0.008-0.033-0.008-0.05-0.015c-0.002,0-0.004-0.001-0.006-0.002C17.838,1.302,16.7,1.983,16.277,2.29   c-2.043-2.021-5.696-1.025-6.475-0.78L8.383,0.074h0C8.358,0.049,8.32,0.047,8.288,0.034C8.26,0.023,8.236,0,8.206,0c0,0,0,0,0,0   C8.169,0,8.144,0.024,8.112,0.039C8.084,0.051,8.053,0.05,8.03,0.072c0,0,0,0,0,0c-0.024,0.024-0.027,0.063-0.04,0.095   C7.979,0.196,7.956,0.22,7.956,0.25l0,0v0.724L5.329,0.015C5.288,0,5.249,0.014,5.209,0.021c-0.024,0.003-0.047-0.008-0.07,0.002   c0,0,0,0.001-0.001,0.001C5.124,0.03,5.119,0.048,5.106,0.058c-0.041,0.03-0.081,0.061-0.098,0.106c0,0,0,0,0,0   c-0.011,0.03,0.003,0.058,0.004,0.087C5.012,0.287,5,0.32,5.015,0.354L5.808,2.09L4.734,1.57c-0.03-0.015-0.062-0.003-0.094-0.005   C4.609,1.563,4.58,1.547,4.548,1.557c-0.001,0-0.001,0.002-0.002,0.002c-0.02,0.006-0.029,0.028-0.047,0.04   C4.462,1.624,4.422,1.646,4.403,1.684c0,0.001-0.002,0.001-0.002,0.002C4.385,1.718,4.396,1.751,4.395,1.784   c-0.001,0.03-0.017,0.058-0.007,0.088l1.443,4.436c0.156,3.492,1.104,5.008,1.568,5.548H7.083c-0.097,0-0.185,0.056-0.226,0.143   c-0.041,0.087-0.028,0.19,0.033,0.265l1.635,1.996l-1.15,1.085c-0.051,0.048-0.08,0.116-0.079,0.186s0.032,0.137,0.085,0.184   l0.21,0.185c-0.213,2.752,0.604,3.48,1.024,3.669v1.016c0,0.138,0.112,0.25,0.25,0.25h0.387l0.708,2.974   C9.987,23.92,10.087,24,10.203,24h0.674c0.119,0,0.221-0.083,0.245-0.199l0.615-2.966h0.403h0.405l0.613,2.966   C13.183,23.917,13.285,24,13.403,24h0.674c0.116,0,0.216-0.08,0.243-0.192l0.709-2.974h0.387c0.138,0,0.25-0.112,0.25-0.25v-1.005   c0.415-0.175,1.268-0.884,1.046-3.702l0.186-0.163c0.053-0.046,0.083-0.113,0.085-0.183s-0.027-0.138-0.078-0.186l-1.14-1.079   l1.665-2.001c0.062-0.075,0.075-0.178,0.034-0.266c-0.041-0.088-0.129-0.144-0.226-0.144c0,0,0,0-0.001,0l-0.432,0.002   c0.466-0.541,1.422-2.063,1.571-5.586c0-0.002-0.002-0.003-0.002-0.006c0-0.002,0.002-0.003,0.002-0.005V5.792l0.786,0.868   c0.013,0.015,0.034,0.011,0.05,0.022c0.035,0.025,0.068,0.055,0.114,0.059c0.007,0,0.014,0.001,0.021,0.001l0,0l0,0h0   c0.03,0,0.052-0.021,0.079-0.031c0.03-0.011,0.063-0.011,0.089-0.034c0,0,0,0,0,0c0.045-0.041,0.075-0.098,0.081-0.163   c0.011-0.118,0.219-2.72-1.042-3.879L19.124,2.261z M6.313,6.216C6.312,6.205,6.319,6.195,6.316,6.184L5.045,2.276l1.17,0.567   C6.25,2.86,6.287,2.868,6.324,2.868c0.035,0,0.07-0.007,0.104-0.022c0.004-0.002,0.005-0.007,0.009-0.009   c0.046-0.024,0.087-0.059,0.112-0.109C6.551,2.723,6.548,2.718,6.55,2.714c0.013-0.03,0.005-0.061,0.005-0.094   c0-0.033,0.009-0.063-0.003-0.094c-0.002-0.004,0.001-0.008,0-0.013L5.719,0.69L8.12,1.566c0.028,0.01,0.058,0.015,0.086,0.015   c0.06,0,0.113-0.027,0.158-0.065c0.015-0.013,0.021-0.027,0.033-0.043C8.411,1.454,8.432,1.44,8.44,1.417   c0.005-0.015-0.004-0.029-0.002-0.044c0.003-0.015,0.017-0.025,0.017-0.041V0.858l1.1,1.112c0.011,0.011,0.027,0.008,0.039,0.017   c0.028,0.021,0.054,0.029,0.088,0.037C9.7,2.028,9.714,2.045,9.733,2.045c0.014,0,0.026-0.014,0.04-0.017   c0.015-0.002,0.028,0.008,0.042,0.002c0.044-0.015,4.28-1.464,6.257,0.753c0.049,0.055,0.118,0.083,0.187,0.083   c0.058,0,0.116-0.02,0.164-0.061c0.011-0.009,0.943-0.793,1.968-0.662l-0.401,0.264c-0.017,0.011-0.018,0.031-0.031,0.045   c-0.013,0.013-0.034,0.015-0.044,0.031c-0.009,0.014-0.002,0.03-0.007,0.045c-0.013,0.031-0.016,0.057-0.016,0.09   s0.004,0.06,0.018,0.09c0.006,0.015,0,0.031,0.008,0.044c0.017,0.026,0.042,0.042,0.065,0.06c0.005,0.004,0.005,0.012,0.011,0.015   c0.943,0.591,1.105,2.158,1.119,3.031l-0.801-0.884c-0.001-0.001-0.004-0.001-0.006-0.002c-0.023-0.025-0.059-0.03-0.091-0.043   c-0.028-0.012-0.052-0.033-0.082-0.034c-0.003,0-0.004-0.003-0.007-0.003c-0.035,0-0.059,0.024-0.089,0.037   c-0.026,0.011-0.057,0.008-0.079,0.028c-0.001,0.001-0.001,0.004-0.002,0.006c-0.024,0.022-0.028,0.057-0.042,0.087   c-0.013,0.029-0.035,0.054-0.036,0.086c0,0.002-0.002,0.004-0.002,0.006V6.25c-0.108,2.558-0.656,4-1.085,4.75l0.432-2.908   c0.019-0.127-0.061-0.248-0.186-0.279C16.911,7.78,16.784,7.85,16.741,7.97l-0.785,2.153l-0.514-2.852l0.208-0.535   c0.05-0.128-0.013-0.273-0.142-0.324c-0.128-0.051-0.273,0.014-0.324,0.142L14.64,7.95l-0.248-1.125   c-0.001-0.007-0.01-0.01-0.012-0.017c-0.01-0.031-0.033-0.051-0.054-0.077c-0.021-0.025-0.035-0.051-0.064-0.066   c-0.006-0.003-0.008-0.012-0.015-0.015c-0.025-0.011-0.05,0.001-0.077-0.001c-0.026-0.003-0.049-0.02-0.077-0.014   c-0.008,0.001-0.011,0.01-0.018,0.013c-0.03,0.009-0.047,0.031-0.072,0.05c-0.027,0.021-0.054,0.037-0.07,0.067   c-0.003,0.006-0.012,0.007-0.015,0.014L13.22,8.375l-0.356-1.123l0.246-0.675c0.047-0.129-0.02-0.273-0.149-0.32   c-0.127-0.047-0.273,0.02-0.32,0.149L12.249,7.48l-0.251-1.046C11.99,6.4,11.961,6.381,11.941,6.355   c-0.017-0.023-0.021-0.053-0.046-0.07c-0.001-0.001-0.003,0-0.005-0.001c-0.028-0.019-0.063-0.014-0.096-0.02   c-0.032-0.005-0.061-0.021-0.092-0.014c-0.002,0-0.003-0.001-0.005-0.001c-0.031,0.007-0.047,0.035-0.072,0.052   c-0.026,0.018-0.059,0.023-0.077,0.051l-0.923,1.365l-0.188-0.891c-0.003-0.014-0.017-0.019-0.021-0.032   c-0.004-0.012,0.002-0.025-0.004-0.038C10.4,6.738,10.378,6.735,10.364,6.72c-0.023-0.024-0.042-0.044-0.072-0.058   c-0.03-0.014-0.058-0.016-0.091-0.017c-0.021-0.001-0.039-0.016-0.061-0.011c-0.014,0.003-0.019,0.017-0.031,0.021   c-0.013,0.004-0.026-0.002-0.038,0.004L8.744,7.395C8.738,7.398,8.737,7.406,8.732,7.409C8.705,7.426,8.694,7.454,8.676,7.48   c-0.02,0.027-0.042,0.049-0.049,0.081C8.625,7.567,8.619,7.569,8.618,7.575l-0.384,2.501L7.465,7.97   C7.421,7.849,7.29,7.78,7.168,7.813C7.044,7.845,6.964,7.965,6.983,8.092l0.432,2.906c-0.43-0.751-0.977-2.192-1.086-4.749   C6.328,6.236,6.316,6.229,6.313,6.216z M8.063,16.315l0.551,0.483v0.729v1.422C8.343,18.668,7.987,17.981,8.063,16.315z    M11.522,17.791c0,0,0.001,0,0.001,0c0.069,0,0.131-0.028,0.177-0.073c0.012-0.012,0.01-0.032,0.019-0.045   c0.026-0.04,0.054-0.079,0.054-0.13c0,0,0,0,0,0c0,0,0,0,0-0.001V17.14l0.968,0.613c0.042,0.026,0.088,0.039,0.134,0.039   c0.058,0,0.11-0.026,0.156-0.064c0.011-0.009,0.019-0.016,0.028-0.026c0.008-0.01,0.021-0.014,0.027-0.025   c0.014-0.021,0.006-0.046,0.012-0.07c0.007-0.023,0.026-0.039,0.026-0.064v-0.489l1.966,0.77c0.025,0.01,0.05,0.013,0.076,0.014   v2.499H12.39v-1.279c0-0.138-0.112-0.25-0.25-0.25s-0.25,0.112-0.25,0.25v1.279H9.115v-2.556L11.522,17.791z M10.674,23.5H10.4   l-0.635-2.666h1.461L10.674,23.5z M13.88,23.5h-0.273l-0.551-2.666h1.46L13.88,23.5z M15.667,18.974v-1.433v-0.743l0.573-0.504   C16.32,18.024,15.94,18.708,15.667,18.974z M15.252,14.102c-0.005,0.004-0.012,0.003-0.017,0.008   c-0.006,0.007-0.004,0.017-0.009,0.024l-0.001,0.002c-0.003,0.003-0.001,0.009-0.004,0.012c-0.032,0.048-0.052,0.099-0.048,0.154   c0.002,0.069,0.026,0.138,0.084,0.186c0.006,0.005,0.014,0.002,0.02,0.006l1.085,1.026l-1.111,0.978   c-0.002,0.002-0.001,0.006-0.004,0.008c-0.023,0.022-0.028,0.055-0.042,0.084c-0.013,0.03-0.035,0.055-0.036,0.087   c0,0.003-0.003,0.005-0.003,0.008v0.628l-2.2-0.862c-0.016-0.006-0.031,0.004-0.048,0.001c-0.016-0.003-0.026-0.018-0.043-0.018   c-0.019,0-0.03,0.016-0.048,0.02c-0.033,0.007-0.058,0.016-0.085,0.035c-0.027,0.019-0.045,0.038-0.063,0.066   c-0.01,0.015-0.029,0.02-0.036,0.038c-0.006,0.016,0.004,0.031,0.001,0.048c-0.003,0.016-0.018,0.026-0.018,0.043v0.401   l-0.968-0.613c-0.021-0.013-0.046-0.006-0.069-0.012c-0.023-0.007-0.039-0.027-0.064-0.027c-0.01,0-0.017,0.01-0.026,0.011   c-0.033,0.003-0.057,0.019-0.085,0.035c-0.029,0.016-0.055,0.027-0.076,0.053c-0.007,0.008-0.019,0.008-0.024,0.017   c-0.014,0.021-0.005,0.046-0.012,0.07c-0.007,0.022-0.026,0.039-0.026,0.064v0.604l-2.159-0.011v-0.593   c0-0.003-0.003-0.005-0.003-0.008c-0.001-0.034-0.023-0.06-0.037-0.09c-0.014-0.028-0.018-0.06-0.04-0.082   C9.031,16.503,9.032,16.5,9.03,16.497L7.917,15.52l1.12-1.057c0.023-0.021,0.022-0.053,0.036-0.079   c0.015-0.03,0.037-0.054,0.039-0.087c0.002-0.032-0.017-0.059-0.027-0.089c-0.009-0.029-0.005-0.06-0.025-0.084L7.61,12.356h2.641   l1.654,2.47c0.026,0.073,0.085,0.132,0.163,0.155c0.024,0.007,0.048,0.011,0.073,0.011c0.082,0,0.16-0.04,0.208-0.111l1.685-2.512   l2.67-0.011L15.252,14.102z M13.898,11.87c-0.083,0-0.161,0.042-0.207,0.111l-1.546,2.306l-1.553-2.319   c-0.046-0.069-0.124-0.111-0.208-0.111H8.047l-0.208-1.405l0.26,0.712c0.039,0.107,0.146,0.178,0.26,0.163   c0.113-0.011,0.205-0.098,0.222-0.21l0.513-3.343l0.924-0.512l0.239,1.132v0l0.001,0.004c0.013,0.063,0.051,0.112,0.099,0.147   c0.003,0.002,0.002,0.006,0.005,0.008c0.042,0.028,0.089,0.041,0.136,0.042c0.001,0,0.002,0.001,0.003,0.001c0,0,0,0,0,0l0,0h0   c0.017,0,0.034-0.002,0.051-0.005c0.007-0.001,0.01-0.009,0.017-0.011c0.054-0.016,0.104-0.043,0.139-0.093l0.935-1.383   l0.312,1.301c0.002,0.01,0.012,0.015,0.016,0.024c0.008,0.022,0.021,0.036,0.035,0.055c0.023,0.032,0.047,0.057,0.083,0.075   c0.01,0.006,0.014,0.019,0.025,0.023c0.028,0.01,0.057,0.015,0.085,0.015c0.019,0,0.039-0.002,0.058-0.007   c0.012-0.003,0.016-0.016,0.027-0.02c0.039-0.015,0.07-0.038,0.097-0.071c0.013-0.015,0.025-0.026,0.034-0.043   c0.005-0.009,0.015-0.014,0.019-0.024l0.149-0.409l0.361,1.139c0.001,0.003,0.004,0.005,0.006,0.008   c0.004,0.013,0.016,0.02,0.022,0.031c0.023,0.042,0.053,0.076,0.094,0.098c0.007,0.004,0.008,0.013,0.016,0.017   c0.002,0.001,0.004,0,0.006,0.001c-0.118,0.159-0.198,0.354-0.198,0.575c0,0.507,0.374,0.921,0.835,0.921   c0.461,0,0.834-0.414,0.834-0.921c0-0.51-0.374-0.921-0.834-0.921c-0.086,0-0.166,0.027-0.244,0.054l0.586-1.341l0.26,1.18   c0.002,0.01,0.011,0.014,0.015,0.023c0.007,0.022,0.021,0.037,0.035,0.057c0.022,0.032,0.045,0.058,0.08,0.076   c0.01,0.006,0.013,0.019,0.024,0.023c0.029,0.012,0.06,0.017,0.09,0.017h0c0,0,0,0,0,0l0,0l0,0c0.018,0,0.036-0.002,0.054-0.006   c0.012-0.002,0.016-0.015,0.027-0.019c0.041-0.015,0.072-0.038,0.101-0.071c0.012-0.014,0.024-0.024,0.033-0.041   c0.005-0.009,0.015-0.014,0.019-0.023l0.288-0.737l0.534,2.96c0.02,0.111,0.112,0.195,0.225,0.205   c0.121,0.007,0.218-0.058,0.256-0.164l0.258-0.707l-0.208,1.404L13.898,11.87z M13.505,9.505c0-0.233,0.172-0.42,0.381-0.42   c0.209,0,0.382,0.187,0.382,0.42c0,0.232-0.172,0.42-0.382,0.42C13.677,9.925,13.505,9.737,13.505,9.505z" fill="#933EC5"/>
</g>
</svg>
