<?xml version="1.0" encoding="utf-8"?>
<!-- Generator: Adobe Illustrator 18.1.1, SVG Export Plug-In . SVG Version: 6.00 Build 0)  -->
<svg version="1.1" id="Layer_1" xmlns="http://www.w3.org/2000/svg" xmlns:xlink="http://www.w3.org/1999/xlink" x="0px" y="0px"
	 viewBox="0 0 595.3 595.3" enable-background="new 0 0 595.3 595.3" xml:space="preserve">
<g>
	<path fill="#4D706A" d="M88.8,334.9c-1.2,2.4-0.3,5.4,2.1,6.6c0.7,0.4,1.5,0.5,2.2,0.5c1.8,0,3.5-1,4.4-2.7l34.1-66.6l22.7-7.3
		c9.4-3,14.5-13.1,11.5-22.5c-1.5-4.5-4.6-8.3-8.9-10.4c-2.9-1.5-6.1-2.2-9.3-1.9c-1.7-2.7-4.1-4.9-7-6.4c-4.2-2.2-9.1-2.6-13.6-1.1
		c-4.5,1.5-8.2,4.6-10.4,8.9c-2.2,4.3-2.6,9.1-1.1,13.6l7.3,22.7l-15.9,31.1l-11.2-5.7l-6.9,13.5l11.2,5.7l-2,3.9l-11.2-5.7
		L80,324.6l11.2,5.7L88.8,334.9z M125.5,236.5c1-1.9,2.6-3.3,4.7-4c2-0.6,4.2-0.5,6.1,0.5c1.9,1,3.3,2.6,4,4.7l1.5,4.7l4.7-1.5
		c2-0.7,4.2-0.5,6.1,0.5c1.9,1,3.3,2.6,4,4.7c1.4,4.2-1,8.7-5.2,10.1l-19.9,6.4l-6.4-19.9C124.3,240.6,124.5,238.4,125.5,236.5z
		 M236.7,328.5c-3.1,0.6-6.3,1.1-9.4,1.7c3,16.3,5.9,32.7,8.7,49.1c1.4-0.3,2.8-0.6,4.2-0.9c0.3,1.3,0.5,2.6,0.8,3.9
		c-5.2,1.1-10.4,2.2-15.5,3.4c-0.3-1.3-0.6-2.6-0.9-3.9c1.1-0.3,2.3-0.5,3.4-0.8c-3-16.4-6.1-32.8-9.2-49.2
		c-2.1,0.4-4.2,0.8-6.2,1.2c0.7,2.4,1.3,4.9,2,7.3c-1.4,0.4-2.8,0.7-4.2,1.1c-1-3.8-2.1-7.6-3.2-11.4c10.9-2.3,21.9-4.3,33-6.2
		c0.8,3.6,1.6,7.2,2.4,10.7c-1.4,0.3-2.8,0.5-4.2,0.8C237.8,333.1,237.3,330.8,236.7,328.5z M273.9,328.1c-3,0.2-6.4,1.3-10,3.4
		c-13.3,8.2-17.2,23.3-15.8,36.4c1.6,14.7,16.1,25.6,31.7,19.2c9.6-4.2,14.1-17.8,13.7-31C293.1,341.5,286.3,327.5,273.9,328.1z
		 M289.1,357.1c0.4,11.2-2.1,26.2-14.4,26.8c-10.3,0.6-16.4-8.2-18.3-17c-0.3-1.3-0.5-2.6-0.6-3.8c-1.2-14.3,9.4-27.5,19.2-28
		c6.3-0.3,11.9,4.5,13.7,17.7C288.9,354.1,289.1,355.6,289.1,357.1z M380.8,381.3c0.9,0,1.8-0.1,2.6-0.1
		c-1.6-14.4-3.4-28.8-5.2-43.2c-4,15.3-7.8,30.6-11.4,45.9c-2.8,0-5.6,0-8.5,0c-3.6-17.2-7.4-34.5-11.5-51.7
		c0.3,15.8,0.5,31.7,0.7,47.5c1-0.1,2.1-0.1,3.1-0.2c0.1,1.3,0.2,2.7,0.3,4c-4.9,0.2-9.7,0.5-14.6,0.8c-0.1-1.3-0.2-2.7-0.4-4
		c1.1-0.1,2.3-0.1,3.4-0.1c-0.4-19.1-0.8-38.1-1.3-57.2c3.5,0,7.1,0.1,10.6,0.2c4.9,16,9.5,32.1,13.9,48.2
		c3.5-15.6,7.2-31.1,11-46.6c2.9,0.2,5.7,0.4,8.6,0.7c2,18.5,3.7,37,5.3,55.5c0.5,0,1.1-0.1,1.6-0.1c0,1.3,0.1,2.7,0.1,4
		c-2.8,0.1-5.6,0.3-8.4,0.4C380.9,383.9,380.9,382.6,380.8,381.3z M421.2,351.1c-1.5,9.9-3.1,19.8-4.6,29.8c1.5,0.2,3,0.3,4.4,0.5
		c-0.1,1.3-0.3,2.6-0.4,4c-5.4-0.7-10.8-1.3-16.2-1.8c0.1-1.3,0.2-2.7,0.4-4c1.2,0.1,2.5,0.3,3.7,0.4c1.2-8.9,2.5-17.7,3.8-26.6
		c-4.7-7.8-9.6-15.7-14.5-23.4c-1.1,0.6-2.2,1.1-3.3,1.6c-0.7-1.2-1.4-2.4-2.1-3.6c4.7-2.3,9.3-4.6,14.1-6.9
		c0.7,1.2,1.4,2.4,2.1,3.6c-1,0.5-2,1-3,1.4c4.5,7.1,8.9,14.3,13.2,21.4c4.8-5.9,9.7-11.8,14.7-17.6c-1.5-0.8-2.9-1.5-4.4-2.3
		c0.7-1.1,1.4-2.3,2.1-3.4c4,2.1,7.9,4.2,11.9,6.4c-0.7,1.1-1.4,2.2-2.2,3.4c-1.2-0.6-2.4-1.3-3.6-1.9
		C431.8,338.3,426.5,344.7,421.2,351.1z M286.8,114.5c-2.7,0.1-5.3,0.2-8,0.3c0.2,14.7,0.4,29.4,0.7,44c1.3-0.1,2.7-0.2,4-0.2
		c0.1,1.2,0.1,2.4,0.2,3.6c-5,0.3-9.9,0.5-14.9,0.7c0-1.2-0.1-2.4-0.1-3.6c1.1,0,2.2-0.1,3.2-0.1c-0.2-14.7-0.3-29.5-0.3-44.2
		c-1.8,0-3.5,0.1-5.3,0.1c0.1,2.2,0.3,4.4,0.4,6.7c-1.2,0.1-2.4,0.2-3.7,0.3c-0.2-3.5-0.4-6.9-0.6-10.4c9.3,0,18.5-0.2,27.8-0.6
		c0.2,3.2,0.5,6.5,0.7,9.7c-1.2,0.1-2.4,0.1-3.6,0.2C287.1,118.7,287,116.6,286.8,114.5z M304.3,165.7c0.2-16.3,0.3-32.6,0.5-48.9
		c-0.7,0-1.4,0-2.2,0c0-1.2-0.1-2.4-0.1-3.5c4.6-0.2,9.2-0.4,13.9-0.6c0,1.2,0.1,2.4,0.1,3.5c-1.5,0.1-3.1,0.2-4.6,0.3
		c0,2.5,0,5,0,7.5c6.2,0,12.4,0,18.6-0.1c-0.1-2.1-0.3-4.2-0.4-6.4c-0.7,0-1.3,0.1-2,0.1c-0.1-1.2-0.1-2.4-0.2-3.5
		c2.5-0.1,4.9-0.3,7.4-0.5c0.1,1.2,0.1,2.3,0.2,3.5c-0.6,0-1.3,0.1-1.9,0.1c0.9,14.1,1.8,28.1,2.7,42.2c1.3-0.1,2.5-0.2,3.8-0.3
		c0.1,1.2,0.2,2.4,0.2,3.5c-3.6,0.3-7.2,0.6-10.8,0.8c-0.1-1.2-0.1-2.4-0.2-3.5c1.1-0.1,2.1-0.1,3.2-0.2c-0.7-10.8-1.3-21.6-2-32.3
		c-6.3,0.1-12.5,0.2-18.8,0.1c0,12.6-0.1,25.3-0.1,37.9c1.6,0,3.2-0.1,4.8-0.1c0.1,1.2,0.1,2.4,0.2,3.5c-5.4,0.2-10.9,0.3-16.3,0.4
		c0-1.2-0.1-2.4-0.1-3.5C301.8,165.7,303,165.7,304.3,165.7z M351.7,110.1c11.6-0.8,23.2-1.8,34.7-3.1c-0.2-1.2-0.4-2.4-0.5-3.6
		c1.2-0.2,2.3-0.4,3.5-0.6c0.6,3.7,1.2,7.4,1.8,11.1c-1.2,0.2-2.4,0.4-3.6,0.6c-0.2-1.3-0.4-2.7-0.7-4c-7.8,0.9-15.7,1.6-23.5,2.3
		c0.3,4.8,0.6,9.5,0.9,14.3c5.8-0.6,11.5-1.2,17.3-1.9c-0.1-1-0.2-2.1-0.3-3.1c1.2-0.1,2.4-0.3,3.6-0.4c0.4,3.8,0.8,7.6,1.3,11.3
		c-1.2,0.1-2.4,0.3-3.6,0.4c-0.2-1.6-0.3-3.2-0.5-4.7c-5.8,0.7-11.6,1.4-17.5,1.9c0.7,9.7,1.4,19.3,2.1,29
		c8.2-1.3,16.4-2.7,24.6-4.2c-0.6-4.9-1.1-9.9-1.7-14.9c1.2-0.1,2.5-0.3,3.7-0.5c0.4,6,0.9,11.9,1.3,17.9c0,0.1,0.1,0.2,0.1,0.3
		c-11.4,2.2-22.9,4.1-34.5,5.8c-1.3-16.9-2.7-33.9-3.9-50.8c-1.4,0.1-2.9,0.2-4.3,0.3C351.9,112.4,351.8,111.2,351.7,110.1z"/>
	<path fill="#D2665F" d="M263.1,530.1c0.5,18.1-8.3,25.1-18.5,25.7c-44,2.8-65.5-55.8-70.2-89.6c-1.2-9.2-1.1-18.7-1.7-28.3
		c-0.2-1.4-0.6-1.9-1.6-1.8c-3.9,1.1-7.7,2.2-11.5,3.3c-6.8,1.7-13.5,3.5-20.2,5.4c-1.3,0.5-2.2,0.7-3.2,0.8
		c-1.9,0.3-3.9,0.4-5.6,0.7c-3.9,0.7-6,2.2-4.5,10c2.4,12.8,9,35.4,10.8,40.3c3.2,9.2,5.7,19.6,14.3,25.1c1.7,1.2,5.1,2.9,5.4,4.8
		c0.1,0.8-1,3-4.6,3.6c-23.3,4-36.5-37.4-41.3-61c-0.7-3.7-1.5-7.4-2.2-11.1c-0.1-0.6-0.2-0.8-0.5-0.8c-0.6,0.1-1.2,0.8-1.8,1.2
		c-0.4,0.3-0.8,0.5-1.2,0.8c-4.6,3.5-13.8,11.9-12.4,17.7c0.2,0.7,0.3,1.5,0.5,2.2c-0.1-0.5,1.4,6.1-1.1,6.6c-2.8,0.6-4.5-1-4.9-2.6
		c-3.6-14.9,21.9-26.9,20.1-36.5c-2.1-10.5-2.3-21.7-2-32.5c0-10.4,2.3-22.6,0.4-32.6c-1.8-9.4-9.1-19-21.9-16.4
		c-1.1,0.2-2.1,0.4-3.2,0.7c-10.1,3.3-19.9,13.7-17.9,21.7c0.5,2.2,1.4,4.3,3.1,5.4c0.2,0.2,0.3,0.3,0.5,0.5c2.6,2,5,2.6,7.4,2.1
		c8.2-1.9,10.4-12.1,13.5-12.8c1.4-0.3,2.4,0.9,2.6,2.1c1.3,6.4-8,13.5-15.1,15.1c-8.2,1.9-15.1-7.2-16.1-11.6
		c-2.6-10.7,6.9-24.1,21.2-27.1c25.4-5.3,37.7,14.9,40.6,31.3c3,17.3,0.9,28.5,4.1,46.1c0.7,3.9,0.7,3.9,2.3,3.6
		c1-0.2,2.9-0.8,3.2-0.9c8.9-3.2,41.5-9.1,42.6-11c3.2-11.8,2.2-28.5,4.1-42.1c0.7-5.5,3.8-22.1,2.7-32.2c-0.9-7.9-4.7-9.7-9.4-9.2
		c-2.5,0.3-4.2,1.7-3.9,3.6c0.1,1.1,1.4,2.7,1.4,3c0.1,0.6-0.3,0.6-1.7,1.1c-2.5,0.3-4-0.3-4.3-2.6c-0.4-3.1,2.3-8,8.4-8.7
		c15.6-1.8,20.7,16.8,21.4,24.4c1.6,16.6-2.3,45.7-2.6,60.8c9.9-1.1,13.2-8.2,15.6-8.4c2.3-0.2,6.7,3.4,6.9,6.5
		c0.2,2-1.6,5.2-4.8,5.5c-1.6,0.1-2.7-0.9-3.8-1.9c-5.4,2.8-15.1,2.4-14.5,7.2c1.1,9.8,0.8,18.7,1.9,28.2
		c2.5,22.2,10.7,54.2,27.1,70.3c8.1,8.1,20.4,14.8,29.5,14.3c7.1-0.4,13-5.7,12.5-19.2c-0.2-6.8-4.4-14.6-12.8-14.1
		c-2.4,0.1-8.5,2.7-8.3,5.3c0.1,1.1,1.3,1,1.3,2.2c0.2,3.7-1.3,6.9-4,7.1c-2.9,0.2-5.4-1.9-5.7-5c-0.4-4.8,9.2-13.1,15.6-13.4
		C254.4,512.3,262.5,520.2,263.1,530.1z M504,456c0.2,0.6,0.3,1.5,0.2,2.1c-0.5,0.7-1.6,0.8-2.5,0.6c-11.7-1-20.4,6.7-26.5,13.8
		c-7.4,6.8-13.8,14.7-20,22.2c-0.7,0.8-1.4,1.7-2.1,2.5c-2.1,2.8-8.8,9.6-11.8,11c-0.7,0.3-1.3,0.5-2,0.8c-1.3,0.1-2.5,0.1-3.4,0
		c-15.6-2.6-12.1-26.3-10.6-38.1c0.9-8.6,1.8-16.4,2.8-24.1c-2,1.1-4.1,2.8-7.2,5.4c-16.2,13.3-33.1,39-44,37.8
		c-6.1-0.6-9.8-8-8.8-19.6c1.1-12.4,6-24.5,10.2-36.2c0.4-0.8,0.5-1.4,0.5-1.7c0-0.1,0-0.2,0-0.3c-3.3-0.3-12.8,5.7-16.7,5.3
		c-0.1,0-0.3-0.1-0.4-0.1c-10.8,13.8-17.2,40.2-26,39.7c-6.8-0.4-8.1-15.7-7.6-27.2c0.6-13.8,3.5-28.4,4.5-35.4
		c-1.8,3.2-3.6,6.4-5.4,9.7c-6.1,8.5-15.3,26.8-28.8,26.7c-5.4,0-8.6-4.7-10.2-9.6c-8.4,15-18.8,37.4-35.6,38.1
		c-19.5,0.9-28.9-20.4-30.1-35.1c0.1-11,5.6-36.5,22.3-37.3c11.5-0.5,17.8,7.8,18,14.6c0.2,6.8-4.8,14.8-15.3,15.3
		c-5.2,0.2-8-3-9-2.9c-1,0-1.1,9.4-0.8,13.9c0.7,11.3,4.2,22.9,16.9,25.5c17.6-0.6,20.1-28.1,32.6-41.3
		c1.2-11.7,11.5-23.7,25.4-23.3c1.7,0,3.7,0.4,5.4,0.7c0.6,0.1,1.1,0.2,1.7,0.3c4.7,1.3,6.3,3.9,7.3,3.9c1,0,4.2-12.8,8.7-12.6
		c8.2,0.4,9.5,6.2,9.1,12.4c-0.9,15.5-5.2,33.1-6.1,49.2c0,0.3-0.5,8.5,0.8,8.5c0.5,0,9.3-23.7,18.3-35.6c-3.7-2.6-7.9-7.6-7.6-13.6
		c0.4-7.1,10.5-16.6,20.4-15.8c4.4,0.4,8.6,3.3,7.9,10.1c-0.7,7-5.2,9.1-10,13.9c-0.7,0.8-1.1,1.3-1.1,1.6c0,0,0,0.3,0.3,0.3
		c1.3,0.1,9.4-4.5,9.4-4.6c2.4-0.9,4.8-1.5,6.8-1.3c7.6,0.8,9.9,7,9.2,13.2c-1.4,11.8-10.3,24.7-11.4,36.6c-0.3,3.1-0.4,6.5,0.9,6.6
		c2,0.2,26.6-30.3,42.9-39.8c1.1-0.6,2.2-1,3.2-1.4c0.3-2.3,0.6-4.5,1-6.8c1.1-7,2.5-13.9,4-21.4c-3.1-0.2-11.7,0-14.7-0.4
		c-2.4-0.3-2.8-2.1-2.6-3.5c0.5-4,14.7-1.4,18.5-1.3c0.2-1.1,0.3-4.2,0.8-7.6c1.1-7,0.9-10.2,7.7-9.1c6.2,1,15.9,4.4,15.2,8
		c-0.5,2.8-4.6,10.4-4.3,10.7c6.2,0.5,10,0.7,12,1c2.4,0.5,2.9,1.4,2.5,3.4c-0.9,4.7-9.2,0.9-15.1,1c-2.1-0.1-9.8,28.7-13.9,53.5
		c-2.6,15.6-4.4,33.4-1.4,33.9c0.9,0.2,2.2-1.6,3.2-2.3c15.6-16.4,38.5-51.4,57.2-47.1C500.8,453.8,503.1,454.1,504,456z M240,428.4
		c0.2,3.1,3.9,5.5,7.5,5.3c3.3-0.2,10-3.5,9.8-11.4c-0.1-3.7-2-8.1-6-9.4c-5.7,0.8-10.2,10.1-11,14.4
		C240.2,427.6,239.9,428.1,240,428.4z M324.5,418.4c0.1-2.5-1.9-3.5-4.6-3.6c-15.1-0.5-22.9,12.8-22.9,22.7
		c-0.1,7.1,1.5,9.6,4.1,9.7c7,0.1,21.7-21.8,23.3-27.7C324.4,419.1,324.4,418.8,324.5,418.4z M371.4,414c0.1-1.4-0.1-2.8-1.4-3.5
		c-7.6,1.9-14.6,5.7-15.5,13c-0.1,0.8-0.1,6.2,4.2,6.5c0.2,0,0.4,0,0.7,0.1C362,429.9,370.8,419.9,371.4,414z M535.3,357.7
		l-19.8,43.1L472.4,381c-11.9-5.5-17.1-19.5-11.7-31.4c1.3-2.8,3.1-5.2,5.2-7.2l-1.5-3.9c-2.4-6.5-2.2-13.7,0.8-20
		c2.9-6.4,8.1-11.2,14.7-13.6c6.5-2.4,13.6-2.2,20,0.8c6.4,2.9,11.2,8.1,13.6,14.7l1.5,3.9c2.9,0.2,5.8,0.8,8.6,2.1
		C535.5,331.8,540.7,345.8,535.3,357.7z M475.6,336.8l-0.8-2.2c-2.9-7.8,1.1-16.6,8.9-19.5c7.8-2.9,16.6,1.1,19.5,8.9l0.8,2.2
		c2-0.9,4.2-1.5,6.4-1.9l-1-2.6c-2-5.4-6-9.8-11.3-12.2c-2.9-1.3-6-2-9.1-2c-2.5,0-5.1,0.4-7.6,1.4c-11.3,4.2-17,16.7-12.8,28l1,2.6
		C471.4,338.3,473.5,337.4,475.6,336.8z M492.2,338c1.8-4,4.6-7.2,7.9-9.5l-1.1-2.8c-1-2.7-3-4.8-5.6-6c-1.4-0.7-3-1-4.5-1
		c-1.3,0-2.5,0.2-3.7,0.7c-5.5,2.1-8.4,8.2-6.3,13.8l1.1,2.8C484,335.5,488.2,336.1,492.2,338z M511.9,372.5l-7.3-11.6
		c1.2-1.7,1.5-3.9,0.8-5.9c-1.2-3.3-4.9-5-8.3-3.8c-3.3,1.2-5,4.9-3.8,8.3c0.8,2.1,2.5,3.5,4.5,4l2.1,13.6L511.9,372.5z
		 M312.7,288.8c0-3.2-0.6-6.7-1.9-10.5c-4.5-14.7-14.7-24.6-25.2-24.6c-10.5,0-10.2,6.7-13.4,17.9v1c0,3.5,3.2,8,6.4,8
		c3.2,0,4.2-1.3,4.2-3.2c0-4.2-4.5-7.3-4.5-9.3c0-5.7,3.2-9.9,8.6-9.9c12.4,0,21.4,21.4,21.4,28.1c0,8.6-7.3,12.1-16.9,12.1
		c-42.4,0-72.4-51.1-90.3-83.9c0-2.2-0.3-4.1-0.6-6.4c12.1-37.7,25.2-49.8,35.4-49.8c9.6,0,16.6,11.5,16.6,22.3
		c0,7-4.5,19.5-14.7,19.5c-2.2,0-6.7-2.2-6.7-5.4c0-1.6,1.6-1.3,1.6-3.8c0-4.5-0.6-8-2.9-8c-2.9,0-6.7,4.5-6.7,9.6
		c0,6.1,7.3,13.1,13.1,13.1c12.8,0,23.6-12.8,23.6-28.1c0-15.6-9.3-31.9-22-31.9c-11.5,0-27.4,11.8-40.5,40.2
		c-1.9-10.8-3.2-18.8-3.5-22l-1-13.1c-0.6-3.2-0.6-7.3-0.6-11.5c0-8.3,0.3-13.7,1.6-22h7v-4.5c0,0-8-0.6-16.6-0.6
		c-8,0-16.3,0.6-19.1,2.2l0.3,3.5l12.1-0.6c-1,3.8-1.3,8.6-1.3,14.4c0,33.5,11.5,97.6,11.5,142.3c0,28.7-4.8,49.8-20.1,49.8
		c-8,0-18.2-6.1-18.2-15c0-4.2,4.5-10.5,8.9-10.5c1,0,0.3,2.2,5.7,2.2c2.9,0,4.8-1,4.8-4.2c0-3.5-2.6-6.1-6.1-6.1
		c-11.8,0-17.5,13.1-17.5,18.5c0,13.1,11.8,20.1,28.4,20.1c24.3,0,31-30.3,31-64.8c0-5.4,0-11.2-0.3-16.6
		c19.5,34.8,51.7,59.7,82,59.7C299.7,307,312.7,302.5,312.7,288.8z M399.2,314.6c-3.4,1.6-6.7,3.3-10.1,5c-1.2-1.4-2.8-2.4-4.7-2.9
		c1.5-8.9,2.9-19.6,4.2-32.3c1.6-13.4,3.2-27.8,3.2-41.5c0-4.2,0-11.8-1.3-11.8c-0.6,0-1.6,2.2-2.9,4.2
		c-15.3,21.3-40.4,54.7-41.4,78.9c-1.9,0-3.8-0.1-5.7-0.1c1.9-14.7,9.5-30.2,16.4-42.1c11.2-19.1,34.5-43.4,34.5-58.7
		c0-1.9-1.3-31-3.8-31.6c-11.2,15.3-12.8,53.6-29,53.6c-7.9,0-10.2-8.4-10.9-16c-7.9,16.4-18.2,36.4-33.8,36.4
		c-20.1,0-28.1-24.9-28.1-41.5c1-12.4,8-40.5,23.6-40.5c10.8,0,16.6,9.6,16.6,17.2c0,7.7-5.1,16.6-15.3,16.6c-5.1,0-7.7-3.8-8.6-3.8
		c-1,0-1.6,10.5-1.6,15.6c0,12.8,2.9,26.2,15.6,29.7c17,0,20.8-27.8,31.4-43.3c0.2-5.1,0.5-10.3,0.5-15.7c0-7.7-0.3-6.1,5.4-7
		c8.3,0,7.7,7,7.7,15v12.8c0,6.7,0.3,13.1,1.3,13.1c0.3,0,0.6,0,1-0.6c8.6-14.7,12.4-29.7,19.1-45.3c2.9-6.7,1-9.6,9.3-9.6
		c8,0,9.3,9.3,9.3,19.1c0,4.8-0.3,9.6-0.3,13.7c0,5.1,0.6,8.6,2.6,9.3c2.2,0,13.4-11.2,26.5-11.2h2.2c1,0.3,1.3,1,1.3,2.2
		c0,5.4-30.6,4.8-30.6,20.4c0,6.1,0.3,18.8,0.3,33.8C403.1,274.1,402.4,296,399.2,314.6z M303.8,197.5c0,3.5,3.5,6.4,7,6.4
		c3.2,0,9.9-3.5,9.9-12.4c0-4.2-1.6-9.3-5.4-10.8c-5.4,0.6-10.2,10.8-11.2,15.6C304.1,196.6,303.8,197.2,303.8,197.5z M444.6,289.4
		c-1.2,1-1.7,2.6-1.9,4.2c-1,6,2.1,18.4,10.5,15.4c6.6-2.3,11-12.5,6.9-18.6c-1.1-1.7-3.1-2.6-5-2.8c-2-0.3-4,0-5.9,0.3
		C447.6,288.1,445.9,288.3,444.6,289.4z M468,168.7c1.3-2.1,1.5-4.9,0.3-7.1c-0.4-0.7-1-1.4-1.7-1.7c-0.6-0.2-1.2-0.2-1.8-0.2
		c-2,0-4.1,0.2-6,0.7c-3.8,0.8-3.2,7.6-1,10.1C460.5,173.7,466,171.9,468,168.7z M120.7,156.6c1.3-2.1,1.5-4.9,0.3-7.1
		c-0.4-0.7-1-1.4-1.7-1.7c-0.6-0.2-1.2-0.2-1.8-0.2c-2,0-4.1,0.2-6,0.7c-3.8,0.8-3.2,7.6-1,10.1
		C113.1,161.6,118.6,159.7,120.7,156.6z M439.2,155.7c0.3-0.6,0.4-1.4,0.2-2c-0.1-0.5-0.5-0.9-0.8-1.3c-1.1-1.3-2.3-2.6-3.6-3.7
		c-2.5-2.1-6.7,1.9-7.3,4.6c-0.7,3.5,3.4,6.3,6.6,6C436.4,159,438.4,157.6,439.2,155.7z M492.4,442.1c1.2-1.7,1.4-4.1,0.5-6
		c-0.3-0.6-0.8-1.2-1.4-1.5c-0.5-0.2-1-0.2-1.5-0.3c-1.7-0.1-3.4,0.1-5.1,0.4c-3.2,0.6-2.9,6.3-1.2,8.5
		C485.9,446.1,490.6,444.7,492.4,442.1z M184.2,84.5c1.4-0.2,2.9-0.4,4.3-0.5c-0.4-3.4-0.8-6.7-1.2-10.1c2.3-5.7,4.7-11.3,7.1-16.9
		c-1.6,0.2-3.2,0.4-4.8,0.6c-1.7,4.2-3.3,8.4-5,12.6c-2.6-3.7-5.2-7.3-7.9-11c-1.6,0.2-3.2,0.4-4.8,0.7c3.7,4.9,7.4,9.9,11.1,14.8
		C183.4,77.9,183.8,81.2,184.2,84.5z M200.4,69.4c-0.5-4.3,0.3-7.7,2.3-10.2c2-2.5,5-4,9.1-4.4c4.1-0.4,7.3,0.5,9.7,2.7
		c2.4,2.2,3.8,5.4,4.1,9.6c0.3,4.3-0.5,7.6-2.5,10.1c-2,2.5-4.9,4-8.9,4.3c-4,0.4-7.2-0.5-9.6-2.6C202.3,76.9,200.8,73.7,200.4,69.4
		z M205,69c0.3,3.2,1.2,5.6,2.7,7.1c1.5,1.5,3.5,2.2,6.1,1.9c2.6-0.2,4.5-1.2,5.6-3c1.2-1.7,1.6-4.2,1.4-7.5
		c-0.3-3.2-1.1-5.6-2.6-7.1c-1.5-1.5-3.5-2.2-6.2-1.9c-2.7,0.3-4.6,1.3-5.8,3C205.1,63.3,204.7,65.8,205,69z M236.9,77.2
		c1.9,1.6,4.6,2.3,7.8,2.1c2.2-0.1,4.1-0.6,5.6-1.5c1.6-0.9,2.7-2,3.5-3.5c0.8-1.5,1.1-3.2,1-5.1c-0.3-5.6-0.5-11.3-0.8-16.9
		c-1.5,0.1-3,0.1-4.5,0.2c0.3,5.5,0.6,11,0.8,16.5c0.2,4.2-1.7,6.4-5.8,6.7c-2.1,0.1-3.7-0.3-4.8-1.3c-1.1-1-1.7-2.5-1.8-4.7
		c-0.4-5.5-0.7-11-1.1-16.5c-1.5,0.1-3,0.2-4.5,0.3c0.4,5.6,0.8,11.2,1.2,16.8C233.8,73.3,234.9,75.6,236.9,77.2z M266.8,52.2
		c-0.1-0.1-0.2-0.3-0.3-0.4c-1.4,0-2.9,0.1-4.3,0.1c-0.3,2.5-0.8,5.5-1.5,9c1,0,2.1-0.1,3.1-0.1C265.2,57.6,266.2,54.7,266.8,52.2z
		 M284.1,77.6c3-8.7,6.1-17.5,9.3-26.2c-1.5,0-3.1,0-4.6,0c-1.9,5.4-3.7,10.8-5.5,16.2c-0.2,0.6-0.5,1.5-0.8,2.7
		c-0.3,1.2-0.5,2.2-0.7,3.2c-0.1-0.6-0.3-1.5-0.7-2.7c-0.3-1.2-0.7-2.2-1-3c-2-5.4-4-10.8-6-16.1c-1.5,0-3.1,0.1-4.6,0.1
		c3.4,8.6,6.8,17.3,10,25.9C281,77.6,282.6,77.6,284.1,77.6z M314.2,74.1c-3.6-0.1-7.2-0.1-10.7-0.2c0-2.7,0.1-5.5,0.1-8.2
		c3.4,0,6.8,0.1,10.1,0.2c0-1.2,0-2.4,0.1-3.6c-3.4-0.1-6.8-0.1-10.2-0.2c0-2.4,0-4.7,0.1-7.1c3.7,0,7.3,0.1,11,0.2
		c0-1.2,0.1-2.4,0.1-3.6c-5.2-0.1-10.3-0.2-15.5-0.2c0,8.7-0.1,17.4-0.1,26.1c5,0,10,0.1,15,0.2C314.2,76.5,314.2,75.3,314.2,74.1z
		 M345.3,79.3c1.7,0.1,3.3,0.1,4.8,0c1.5-0.1,3-0.4,4.7-0.8c0.3-4.4,0.6-8.7,0.9-13.1c-3.3-0.2-6.6-0.4-9.9-0.6
		c-0.1,1.2-0.1,2.4-0.2,3.7c1.9,0.1,3.7,0.2,5.6,0.3c-0.1,2.2-0.3,4.5-0.4,6.7c-1.6,0.2-3.1,0.3-4.6,0.2c-2.8-0.2-4.9-1.1-6.3-2.8
		c-1.4-1.7-2-4.2-1.9-7.4c0.1-3,1.1-5.4,2.9-7c1.8-1.7,4.1-2.4,7-2.2c2.2,0.1,4.4,0.8,6.5,1.9c0.6-1.2,1.2-2.3,1.8-3.4
		c-2.5-1.2-5.2-1.9-8-2.1c-4.4-0.3-8,0.7-10.6,3c-2.6,2.3-4,5.5-4.2,9.7c-0.2,4.3,0.8,7.6,2.9,10C338.2,77.8,341.2,79.1,345.3,79.3z
		 M365.4,77.2c-2-2.5-2.8-5.9-2.5-10.2c0.3-4.3,1.7-7.5,4.1-9.6c2.4-2.1,5.7-3,9.8-2.6c4.1,0.4,7.1,1.9,9,4.4c2,2.6,2.7,6,2.3,10.2
		c-0.4,4.2-1.9,7.4-4.3,9.5c-2.4,2.1-5.6,3-9.5,2.6C370.3,81.1,367.4,79.7,365.4,77.2z M369,74.8c1.2,1.8,3.1,2.8,5.7,3
		c2.6,0.2,4.6-0.4,6.1-1.9c1.5-1.5,2.4-3.9,2.7-7.1c0.3-3.2-0.1-5.7-1.3-7.5c-1.2-1.8-3.1-2.8-5.7-3c-2.7-0.2-4.8,0.4-6.2,1.9
		c-1.5,1.5-2.4,3.9-2.6,7.1C367.3,70.6,367.8,73.1,369,74.8z M399.5,83.8c1.4,0.2,2.9,0.4,4.3,0.5c0.9-7.4,1.9-14.9,2.8-22.3
		c2.7,0.3,5.3,0.7,8,1c0.2-1.2,0.3-2.4,0.5-3.6c-6.8-0.9-13.6-1.8-20.5-2.5c-0.1,1.2-0.3,2.4-0.4,3.6c2.7,0.3,5.3,0.6,8,0.9
		C401.3,68.9,400.4,76.3,399.5,83.8z M138.6,55.5c-0.5-0.4-0.6-1.1-0.5-1.7c0.2-0.6,0.7-1,1.3-1.2c103.2-17.8,207.8-17.8,311,0
		c0.6,0.1,1.1,0.6,1.3,1.2c0.2,0.6,0,1.2-0.5,1.7c-6.8,6.2-13.6,12.6-20.3,19c4.4,8.1,8.7,16.4,12.8,24.5c0.3,0.5,0.2,1.2-0.1,1.7
		c-0.3,0.4-0.8,0.7-1.3,0.7c-0.1,0-0.2,0-0.3,0c-97.6-16.8-196.6-16.8-294.2,0c-0.6,0.1-1.2-0.1-1.6-0.6c-0.4-0.5-0.4-1.2-0.1-1.7
		c4.1-8.2,8.4-16.5,12.8-24.5C152.2,68.1,145.4,61.7,138.6,55.5z M143.2,55.4c6.3,5.8,12.7,11.8,18.8,17.7c0.5,0.5,0.6,1.3,0.3,2
		c-4,7.4-8,15-11.9,22.6c95.9-16.2,193-16.2,288.9,0c-3.8-7.6-7.8-15.2-11.9-22.6c-0.3-0.6-0.2-1.4,0.3-2c6.2-6,12.5-12,18.8-17.7
		C345.9,38.4,243.9,38.4,143.2,55.4z"/>
</g>
</svg>
